<?xml version="1.0" encoding="UTF-8"?>
<!DOCTYPE svg PUBLIC "-//W3C//DTD SVG 1.1//EN" "http://www.w3.org/Graphics/SVG/1.1/DTD/svg11.dtd">
<svg xmlns="http://www.w3.org/2000/svg" version="1.1" width="512px" height="512px" style="shape-rendering:geometricPrecision; text-rendering:geometricPrecision; image-rendering:optimizeQuality; fill-rule:evenodd; clip-rule:evenodd" xmlns:xlink="http://www.w3.org/1999/xlink">
<g><path style="opacity:0.99" fill="#2a8cff" d="M 264.5,31.5 C 265.487,51.4241 265.821,71.4241 265.5,91.5C 258.833,91.5 252.167,91.5 245.5,91.5C 244.432,90.5655 243.099,90.2322 241.5,90.5C 241.18,71.0906 241.513,51.7572 242.5,32.5C 249.798,30.8356 257.132,30.5022 264.5,31.5 Z"/></g>
<g><path style="opacity:0.983" fill="#2e86ff" d="M 264.5,31.5 C 273.871,33.0584 282.204,36.7251 289.5,42.5C 289.473,58.1936 289.473,74.1936 289.5,90.5C 287.901,90.2322 286.568,90.5655 285.5,91.5C 278.833,91.5 272.167,91.5 265.5,91.5C 265.821,71.4241 265.487,51.4241 264.5,31.5 Z"/></g>
<g><path style="opacity:0.987" fill="#2592ff" d="M 242.5,32.5 C 241.513,51.7572 241.18,71.0906 241.5,90.5C 243.099,90.2322 244.432,90.5655 245.5,91.5C 238.833,91.5 232.167,91.5 225.5,91.5C 223.052,90.5269 220.385,90.1936 217.5,90.5C 217.5,75.5 217.5,60.5 217.5,45.5C 224.666,39.0197 232.999,34.6863 242.5,32.5 Z"/></g>
<g><path style="opacity:0.954" fill="#357fff" d="M 289.5,42.5 C 308.363,57.7849 326.697,73.7849 344.5,90.5C 324.845,91.4996 305.178,91.833 285.5,91.5C 286.568,90.5655 287.901,90.2322 289.5,90.5C 289.473,74.1936 289.473,58.1936 289.5,42.5 Z"/></g>
<g><path style="opacity:0.965" fill="#2098ff" d="M 217.5,45.5 C 217.5,60.5 217.5,75.5 217.5,90.5C 220.385,90.1936 223.052,90.5269 225.5,91.5C 211.833,91.5 198.167,91.5 184.5,91.5C 185.568,90.5655 186.901,90.2322 188.5,90.5C 188.5,84.1667 188.5,77.8333 188.5,71.5C 198.141,62.8619 207.808,54.1953 217.5,45.5 Z"/></g>
<g><path style="opacity:0.898" fill="#1b9fff" d="M 188.5,71.5 C 188.5,77.8333 188.5,84.1667 188.5,90.5C 186.901,90.2322 185.568,90.5655 184.5,91.5C 178.463,91.8293 172.463,91.4959 166.5,90.5C 173.853,84.144 181.186,77.8107 188.5,71.5 Z"/></g>
<g><path style="opacity:0.995" fill="#10abff" d="M 140.5,106.5 C 140.172,157.572 140.505,208.572 141.5,259.5C 132.226,252.068 123.059,244.401 114,236.5C 113.333,194.833 113.333,153.167 114,111.5C 114.785,109.714 115.951,108.214 117.5,107C 125.159,106.5 132.826,106.334 140.5,106.5 Z"/></g>
<g><path style="opacity:0.996" fill="#15a5ff" d="M 140.5,106.5 C 149.833,106.5 159.167,106.5 168.5,106.5C 167.432,107.434 166.099,107.768 164.5,107.5C 164.5,164.833 164.5,222.167 164.5,279.5C 156.217,273.551 148.55,266.884 141.5,259.5C 140.505,208.572 140.172,157.572 140.5,106.5 Z"/></g>
<g><path style="opacity:0.99" fill="#1a9fff" d="M 168.5,106.5 C 175.167,106.5 181.833,106.5 188.5,106.5C 188.169,127.673 188.503,148.673 189.5,169.5C 179.323,190.996 178.989,212.663 188.5,234.5C 188.188,256.879 188.521,279.212 189.5,301.5C 180.938,294.392 172.605,287.059 164.5,279.5C 164.5,222.167 164.5,164.833 164.5,107.5C 166.099,107.768 167.432,107.434 168.5,106.5 Z"/></g>
<g><path style="opacity:0.987" fill="#2098ff" d="M 188.5,106.5 C 198.167,106.5 207.833,106.5 217.5,106.5C 217.809,117.248 217.476,127.915 216.5,138.5C 204.295,146.039 195.295,156.372 189.5,169.5C 188.503,148.673 188.169,127.673 188.5,106.5 Z"/></g>
<g><path style="opacity:0.98" fill="#2493ff" d="M 217.5,106.5 C 225.5,106.5 233.5,106.5 241.5,106.5C 241.5,114.167 241.5,121.833 241.5,129.5C 232.797,131.512 224.463,134.512 216.5,138.5C 217.476,127.915 217.809,117.248 217.5,106.5 Z"/></g>
<g><path style="opacity:0.974" fill="#2a8cff" d="M 241.5,106.5 C 250.833,106.5 260.167,106.5 269.5,106.5C 268.432,107.434 267.099,107.768 265.5,107.5C 265.203,114.92 265.536,122.254 266.5,129.5C 258.174,128.203 249.84,128.203 241.5,129.5C 241.5,121.833 241.5,114.167 241.5,106.5 Z"/></g>
<g><path style="opacity:0.981" fill="#2f86ff" d="M 269.5,106.5 C 276.5,106.5 283.5,106.5 290.5,106.5C 290.5,116.833 290.5,127.167 290.5,137.5C 283.015,133.449 275.015,130.783 266.5,129.5C 265.536,122.254 265.203,114.92 265.5,107.5C 267.099,107.768 268.432,107.434 269.5,106.5 Z"/></g>
<g><path style="opacity:0.984" fill="#347fff" d="M 290.5,106.5 C 299.833,106.5 309.167,106.5 318.5,106.5C 318.5,125.5 318.5,144.5 318.5,163.5C 311.429,152.431 302.096,143.764 290.5,137.5C 290.5,127.167 290.5,116.833 290.5,106.5 Z"/></g>
<g><path style="opacity:0.988" fill="#3979ff" d="M 318.5,106.5 C 326.5,106.5 334.5,106.5 342.5,106.5C 342.168,165.002 342.501,223.336 343.5,281.5C 335.541,288.49 327.541,295.49 319.5,302.5C 318.68,284.573 318.18,266.573 318,248.5C 317.31,249.738 316.81,249.738 316.5,248.5C 327.885,239.88 332.218,228.38 329.5,214C 330.482,196.068 326.815,179.235 318.5,163.5C 318.5,144.5 318.5,125.5 318.5,106.5 Z"/></g>
<g><path style="opacity:0.997" fill="#3d74ff" d="M 342.5,106.5 C 344.833,106.5 347.167,106.5 349.5,106.5C 350.919,107.451 352.585,107.784 354.5,107.5C 354.5,162.5 354.5,217.5 354.5,272.5C 351.149,275.848 347.482,278.848 343.5,281.5C 342.501,223.336 342.168,165.002 342.5,106.5 Z"/></g>
<g><path style="opacity:0.995" fill="#3f71ff" d="M 349.5,106.5 C 356.5,106.5 363.5,106.5 370.5,106.5C 369.432,107.434 368.099,107.768 366.5,107.5C 366.171,158.905 366.505,210.238 367.5,261.5C 363.352,265.404 359.019,269.071 354.5,272.5C 354.5,217.5 354.5,162.5 354.5,107.5C 352.585,107.784 350.919,107.451 349.5,106.5 Z"/></g>
<g><path style="opacity:0.996" fill="#426eff" d="M 370.5,106.5 C 375.167,106.5 379.833,106.5 384.5,106.5C 384.168,153.003 384.501,199.336 385.5,245.5C 379.823,251.176 373.823,256.509 367.5,261.5C 366.505,210.238 366.171,158.905 366.5,107.5C 368.099,107.768 369.432,107.434 370.5,106.5 Z"/></g>
<g><path style="opacity:0.908" fill="#456aff" d="M 384.5,106.5 C 387.518,106.335 390.518,106.502 393.5,107C 395.049,108.214 396.215,109.714 397,111.5C 397.667,153.167 397.667,194.833 397,236.5C 393.291,239.715 389.458,242.715 385.5,245.5C 384.501,199.336 384.168,153.003 384.5,106.5 Z"/></g>
<g><path style="opacity:0.95" fill="#2e88ff" d="M 258.5,143.5 C 271.228,143.737 282.228,148.07 291.5,156.5C 290.539,158.265 290.205,160.265 290.5,162.5C 282.995,156.847 278.162,158.847 276,168.5C 271.381,164.94 266.214,162.607 260.5,161.5C 261.053,155.208 260.386,149.208 258.5,143.5 Z"/></g>
<g><path style="opacity:0.963" fill="#278fff" d="M 258.5,143.5 C 260.386,149.208 261.053,155.208 260.5,161.5C 249.085,160.196 239.085,163.529 230.5,171.5C 230.825,163.981 230.492,156.648 229.5,149.5C 238.486,144.831 248.152,142.831 258.5,143.5 Z"/></g>
<g><path style="opacity:0.942" fill="#08b5ff" d="M 96.5,151.5 C 97.8324,162.981 98.499,174.814 98.5,187C 98.3333,198.833 98.1667,210.667 98,222.5C 84.3272,210.991 70.8272,199.324 57.5,187.5C 70.5202,175.478 83.5202,163.478 96.5,151.5 Z"/></g>
<g><path style="opacity:0.961" fill="#3480ff" d="M 291.5,156.5 C 304.541,166.1 312.041,179.1 314,195.5C 314.667,206.833 314.667,218.167 314,229.5C 310.452,236.435 304.952,238.602 297.5,236C 295.083,234.337 293.25,232.171 292,229.5C 291.823,207.094 291.323,184.761 290.5,162.5C 290.205,160.265 290.539,158.265 291.5,156.5 Z"/></g>
<g><path style="opacity:0.982" fill="#2296ff" d="M 229.5,149.5 C 230.492,156.648 230.825,163.981 230.5,171.5C 215.842,191.801 215.842,212.134 230.5,232.5C 230.5,240.167 230.5,247.833 230.5,255.5C 208.774,244.726 197.441,227.059 196.5,202.5C 197.051,183.985 204.051,168.485 217.5,156C 221.075,153.046 225.075,150.879 229.5,149.5 Z"/></g>
<g><path style="opacity:0.977" fill="#4d61ff" d="M 412.5,151.5 C 426.745,162.739 440.412,174.739 453.5,187.5C 440.173,199.324 426.673,210.991 413,222.5C 412.5,198.836 412.333,175.169 412.5,151.5 Z"/></g>
<g><path style="opacity:0.984" fill="#2a8cff" d="M 254.5,175.5 C 268.955,178.169 276.288,187.002 276.5,202C 276.455,212.089 272.455,220.089 264.5,226C 250.145,230.905 240.645,226.072 236,211.5C 232.909,199.612 235.409,189.112 243.5,180C 247.053,177.879 250.72,176.379 254.5,175.5 Z"/></g>
<g><path style="opacity:0.975" fill="#01bdff" d="M 64.5,213.5 C 63.5007,289.998 63.1674,366.665 63.5,443.5C 58.8403,448.155 53.8403,452.488 48.5,456.5C 46.4816,454.303 45.315,451.636 45,448.5C 44.3333,368.167 44.3333,287.833 45,207.5C 45.315,204.364 46.4816,201.697 48.5,199.5C 54.1746,203.846 59.5079,208.512 64.5,213.5 Z"/></g>
<g><path style="opacity:0.977" fill="#525aff" d="M 443.5,439.5 C 443.5,365.167 443.5,290.833 443.5,216.5C 449.49,210.514 455.823,204.847 462.5,199.5C 464.518,201.697 465.685,204.364 466,207.5C 466.667,287.833 466.667,368.167 466,448.5C 465.685,451.636 464.518,454.303 462.5,456.5C 455.823,451.153 449.49,445.486 443.5,439.5 Z"/></g>
<g><path style="opacity:0.996" fill="#05b9ff" d="M 64.5,213.5 C 69.1518,216.821 73.4851,220.487 77.5,224.5C 77.5,293.5 77.5,362.5 77.5,431.5C 73.153,435.845 68.4863,439.845 63.5,443.5C 63.1674,366.665 63.5007,289.998 64.5,213.5 Z"/></g>
<g><path style="opacity:0.995" fill="#4e60ff" d="M 443.5,216.5 C 443.5,290.833 443.5,365.167 443.5,439.5C 435.202,433.203 427.202,426.537 419.5,419.5C 419.5,358.5 419.5,297.5 419.5,236.5C 427.202,229.463 435.202,222.797 443.5,216.5 Z"/></g>
<g><path style="opacity:0.997" fill="#07b6ff" d="M 77.5,224.5 C 80.859,227.529 84.1924,230.529 87.5,233.5C 87.5,296.5 87.5,359.5 87.5,422.5C 84.5852,425.959 81.2518,428.959 77.5,431.5C 77.5,362.5 77.5,293.5 77.5,224.5 Z"/></g>
<g><path style="opacity:0.995" fill="#0ab3ff" d="M 87.5,233.5 C 94.2068,239.177 100.873,244.843 107.5,250.5C 106.501,302.331 106.168,354.331 106.5,406.5C 100.763,412.536 94.4292,417.87 87.5,422.5C 87.5,359.5 87.5,296.5 87.5,233.5 Z"/></g>
<g><path style="opacity:0.982" fill="#1e9bff" d="M 188.5,234.5 C 192.242,240.305 196.242,245.971 200.5,251.5C 200.522,271.473 200.522,291.139 200.5,310.5C 196.518,307.848 192.851,304.848 189.5,301.5C 188.521,279.212 188.188,256.879 188.5,234.5 Z"/></g>
<g><path style="opacity:0.987" fill="#2f86ff" d="M 290.5,249.5 C 289.833,268.833 289.167,288.167 288.5,307.5C 281.556,302.625 273.89,299.292 265.5,297.5C 265.18,278.757 265.514,260.09 266.5,241.5C 270.373,239.653 274.04,237.32 277.5,234.5C 280.794,240.457 285.127,245.457 290.5,249.5 Z"/></g>
<g><path style="opacity:0.995" fill="#4866ff" d="M 419.5,236.5 C 419.5,297.5 419.5,358.5 419.5,419.5C 409.513,411.511 399.847,403.178 390.5,394.5C 391.833,350.167 391.833,305.833 390.5,261.5C 399.847,252.822 409.513,244.489 419.5,236.5 Z"/></g>
<g><path style="opacity:0.987" fill="#3480ff" d="M 316.5,248.5 C 316.81,249.738 317.31,249.738 318,248.5C 318.18,266.573 318.68,284.573 319.5,302.5C 313.511,307.65 307.344,312.65 301,317.5C 296.368,314.696 292.201,311.363 288.5,307.5C 289.167,288.167 289.833,268.833 290.5,249.5C 299.354,253.661 308.02,253.327 316.5,248.5 Z"/></g>
<g><path style="opacity:0.995" fill="#0dafff" d="M 107.5,250.5 C 110.526,253.195 113.526,255.862 116.5,258.5C 115.501,304.997 115.168,351.664 115.5,398.5C 113.105,401.861 110.105,404.528 106.5,406.5C 106.168,354.331 106.501,302.331 107.5,250.5 Z"/></g>
<g><path style="opacity:0.985" fill="#2197ff" d="M 200.5,251.5 C 205.941,257.283 211.941,262.283 218.5,266.5C 217.504,281.324 217.171,296.324 217.5,311.5C 214.905,313.816 212.239,316.149 209.5,318.5C 205.863,316.52 202.863,313.854 200.5,310.5C 200.522,291.139 200.522,271.473 200.5,251.5 Z"/></g>
<g><path style="opacity:0.991" fill="#10abff" d="M 116.5,258.5 C 124.915,265.039 132.915,272.039 140.5,279.5C 140.5,312.167 140.5,344.833 140.5,377.5C 132.484,384.846 124.151,391.846 115.5,398.5C 115.168,351.664 115.501,304.997 116.5,258.5 Z"/></g>
<g><path style="opacity:0.979" fill="#2493ff" d="M 218.5,266.5 C 225.739,270.358 233.405,273.024 241.5,274.5C 241.5,282.5 241.5,290.5 241.5,298.5C 232.547,301.131 224.547,305.464 217.5,311.5C 217.171,296.324 217.504,281.324 218.5,266.5 Z"/></g>
<g><path style="opacity:0.993" fill="#436dff" d="M 390.5,261.5 C 391.833,305.833 391.833,350.167 390.5,394.5C 381.849,387.846 373.516,380.846 365.5,373.5C 366.498,343.338 366.831,313.005 366.5,282.5C 373.882,274.784 381.882,267.784 390.5,261.5 Z"/></g>
<g><path style="opacity:0.97" fill="#2a8dff" d="M 230.5,232.5 C 240.843,242.058 252.843,245.058 266.5,241.5C 265.514,260.09 265.18,278.757 265.5,297.5C 257.421,296.03 249.421,296.363 241.5,298.5C 241.5,290.5 241.5,282.5 241.5,274.5C 245.639,275.206 249.806,275.872 254,276.5C 261.845,275.144 264.178,270.811 261,263.5C 250.669,261.519 240.502,258.852 230.5,255.5C 230.5,247.833 230.5,240.167 230.5,232.5 Z"/></g>
<g><path style="opacity:0.989" fill="#15a5ff" d="M 140.5,279.5 C 149.485,286.487 158.152,293.821 166.5,301.5C 164.513,319.47 163.846,337.803 164.5,356.5C 156.915,363.961 148.915,370.961 140.5,377.5C 140.5,344.833 140.5,312.167 140.5,279.5 Z"/></g>
<g><path style="opacity:0.986" fill="#3e73ff" d="M 366.5,282.5 C 366.831,313.005 366.498,343.338 365.5,373.5C 357.808,366.804 350.141,360.138 342.5,353.5C 342.5,336.5 342.5,319.5 342.5,302.5C 350.202,295.463 358.202,288.797 366.5,282.5 Z"/></g>
<g><path style="opacity:0.974" fill="#1a9fff" d="M 166.5,301.5 C 177.135,310.133 187.468,319.133 197.5,328.5C 187.066,338.543 176.066,347.876 164.5,356.5C 163.846,337.803 164.513,319.47 166.5,301.5 Z"/></g>
<g><path style="opacity:0.973" fill="#3a78ff" d="M 342.5,302.5 C 342.5,319.5 342.5,336.5 342.5,353.5C 332.373,345.21 322.373,336.71 312.5,328C 322.373,319.29 332.373,310.79 342.5,302.5 Z"/></g>
<g><path style="opacity:0.997" fill="#2a8cff" d="M 266.5,313.5 C 265.501,368.664 265.168,423.997 265.5,479.5C 257.5,479.5 249.5,479.5 241.5,479.5C 241.5,424.5 241.5,369.5 241.5,314.5C 249.72,311.009 258.054,310.676 266.5,313.5 Z"/></g>
<g><path style="opacity:0.998" fill="#2e86ff" d="M 266.5,313.5 C 275.974,315.737 283.641,320.737 289.5,328.5C 289.5,378.833 289.5,429.167 289.5,479.5C 281.5,479.5 273.5,479.5 265.5,479.5C 265.168,423.997 265.501,368.664 266.5,313.5 Z"/></g>
<g><path style="opacity:0.998" fill="#2691ff" d="M 241.5,314.5 C 241.5,369.5 241.5,424.5 241.5,479.5C 237.833,479.5 234.167,479.5 230.5,479.5C 230.832,426.664 230.499,373.997 229.5,321.5C 231.401,319.204 233.734,317.371 236.5,316C 238.025,314.991 239.692,314.491 241.5,314.5 Z"/></g>
<g><path style="opacity:0.999" fill="#2493ff" d="M 229.5,321.5 C 230.499,373.997 230.832,426.664 230.5,479.5C 226.167,479.5 221.833,479.5 217.5,479.5C 217.5,430.167 217.5,380.833 217.5,331.5C 221.183,327.82 225.183,324.486 229.5,321.5 Z"/></g>
<g><path style="opacity:0.995" fill="#3480ff" d="M 289.5,328.5 C 299.487,336.489 309.153,344.822 318.5,353.5C 318.5,395.5 318.5,437.5 318.5,479.5C 308.833,479.5 299.167,479.5 289.5,479.5C 289.5,429.167 289.5,378.833 289.5,328.5 Z"/></g>
<g><path style="opacity:0.997" fill="#2197ff" d="M 217.5,331.5 C 217.5,380.833 217.5,430.167 217.5,479.5C 211.833,479.5 206.167,479.5 200.5,479.5C 200.51,434.861 200.51,390.528 200.5,346.5C 205.844,341.157 211.511,336.157 217.5,331.5 Z"/></g>
<g><path style="opacity:0.996" fill="#1e9bff" d="M 200.5,346.5 C 200.51,390.528 200.51,434.861 200.5,479.5C 196.5,479.5 192.5,479.5 188.5,479.5C 188.5,438.5 188.5,397.5 188.5,356.5C 192.183,352.82 196.183,349.486 200.5,346.5 Z"/></g>
<g><path style="opacity:0.996" fill="#1a9fff" d="M 188.5,356.5 C 188.5,397.5 188.5,438.5 188.5,479.5C 180.5,479.5 172.5,479.5 164.5,479.5C 164.5,445.5 164.5,411.5 164.5,377.5C 171.882,369.784 179.882,362.784 188.5,356.5 Z"/></g>
<g><path style="opacity:0.996" fill="#3979ff" d="M 318.5,353.5 C 326.464,359.463 334.13,365.796 341.5,372.5C 342.487,408.124 342.82,443.79 342.5,479.5C 334.5,479.5 326.5,479.5 318.5,479.5C 318.5,437.5 318.5,395.5 318.5,353.5 Z"/></g>
<g><path style="opacity:0.994" fill="#15a5ff" d="M 164.5,377.5 C 164.5,411.5 164.5,445.5 164.5,479.5C 156.5,479.5 148.5,479.5 140.5,479.5C 140.831,452.328 140.498,425.328 139.5,398.5C 147.535,391.131 155.868,384.131 164.5,377.5 Z"/></g>
<g><path style="opacity:0.996" fill="#3e73ff" d="M 341.5,372.5 C 350.062,379.608 358.395,386.941 366.5,394.5C 366.5,422.833 366.5,451.167 366.5,479.5C 358.5,479.5 350.5,479.5 342.5,479.5C 342.82,443.79 342.487,408.124 341.5,372.5 Z"/></g>
<g><path style="opacity:0.994" fill="#436dff" d="M 366.5,394.5 C 375.485,401.487 384.152,408.821 392.5,416.5C 391.503,437.327 391.169,458.327 391.5,479.5C 383.167,479.5 374.833,479.5 366.5,479.5C 366.5,451.167 366.5,422.833 366.5,394.5 Z"/></g>
<g><path style="opacity:0.994" fill="#10abff" d="M 139.5,398.5 C 140.498,425.328 140.831,452.328 140.5,479.5C 132.167,479.5 123.833,479.5 115.5,479.5C 115.5,459.5 115.5,439.5 115.5,419.5C 122.882,411.784 130.882,404.784 139.5,398.5 Z"/></g>
<g><path style="opacity:0.991" fill="#4867ff" d="M 392.5,416.5 C 400.783,422.449 408.45,429.116 415.5,436.5C 414.504,450.657 414.171,464.99 414.5,479.5C 406.833,479.5 399.167,479.5 391.5,479.5C 391.169,458.327 391.503,437.327 392.5,416.5 Z"/></g>
<g><path style="opacity:0.987" fill="#0bb2ff" d="M 115.5,419.5 C 115.5,439.5 115.5,459.5 115.5,479.5C 106.167,479.5 96.8333,479.5 87.5,479.5C 87.5,467.5 87.5,455.5 87.5,443.5C 96.4519,435.029 105.785,427.029 115.5,419.5 Z"/></g>
<g><path style="opacity:0.978" fill="#4d60ff" d="M 415.5,436.5 C 428.608,447.099 441.608,457.932 454.5,469C 450.48,473.01 445.813,476.01 440.5,478C 431.902,479.376 423.235,479.876 414.5,479.5C 414.171,464.99 414.504,450.657 415.5,436.5 Z"/></g>
<g><path style="opacity:0.962" fill="#06b8ff" d="M 87.5,443.5 C 87.5,455.5 87.5,467.5 87.5,479.5C 75.3665,481.056 65.0332,477.556 56.5,469C 66.5268,460.006 76.8601,451.506 87.5,443.5 Z"/></g>
</svg>
