<?xml version="1.0" encoding="UTF-8"?>
<!DOCTYPE svg PUBLIC "-//W3C//DTD SVG 1.1//EN" "http://www.w3.org/Graphics/SVG/1.1/DTD/svg11.dtd">
<svg xmlns="http://www.w3.org/2000/svg" version="1.1" width="512px" height="512px" style="shape-rendering:geometricPrecision; text-rendering:geometricPrecision; image-rendering:optimizeQuality; fill-rule:evenodd; clip-rule:evenodd" xmlns:xlink="http://www.w3.org/1999/xlink">
<g><path style="opacity:0.991" fill="#2a8cff" d="M 265.5,31.5 C 264.502,62.9956 264.168,94.6623 264.5,126.5C 257.196,125.353 249.862,125.353 242.5,126.5C 243.492,94.9067 243.825,63.24 243.5,31.5C 250.962,30.2204 258.296,30.2204 265.5,31.5 Z"/></g>
<g><path style="opacity:0.994" fill="#2f86ff" d="M 265.5,31.5 C 271.941,31.3277 278.274,31.9944 284.5,33.5C 284.5,66.1667 284.5,98.8333 284.5,131.5C 278.155,128.608 271.488,126.942 264.5,126.5C 264.168,94.6623 264.502,62.9956 265.5,31.5 Z"/></g>
<g><path style="opacity:0.993" fill="#2492ff" d="M 243.5,31.5 C 243.825,63.24 243.492,94.9067 242.5,126.5C 236.301,127.9 230.301,129.9 224.5,132.5C 223.508,99.5732 223.174,66.5732 223.5,33.5C 230.12,32.397 236.786,31.7303 243.5,31.5 Z"/></g>
<g><path style="opacity:0.993" fill="#347fff" d="M 284.5,33.5 C 292.678,34.8778 300.678,36.8778 308.5,39.5C 308.5,76.1667 308.5,112.833 308.5,149.5C 301.573,142.04 293.573,136.04 284.5,131.5C 284.5,98.8333 284.5,66.1667 284.5,33.5 Z"/></g>
<g><path style="opacity:0.991" fill="#2197ff" d="M 223.5,33.5 C 223.174,66.5732 223.508,99.5732 224.5,132.5C 218.984,135.089 213.984,138.422 209.5,142.5C 209.5,107.5 209.5,72.5 209.5,37.5C 214.167,36.1667 218.833,34.8333 223.5,33.5 Z"/></g>
<g><path style="opacity:0.994" fill="#1e9bff" d="M 209.5,37.5 C 209.5,72.5 209.5,107.5 209.5,142.5C 206.138,146.192 202.805,149.859 199.5,153.5C 199.173,115.761 199.507,78.094 200.5,40.5C 203.33,39.2655 206.33,38.2655 209.5,37.5 Z"/></g>
<g><path style="opacity:0.992" fill="#1a9fff" d="M 200.5,40.5 C 199.507,78.094 199.173,115.761 199.5,153.5C 181.889,181.116 182.222,208.45 200.5,235.5C 199.501,283.33 199.168,331.33 199.5,379.5C 192.463,371.798 185.797,363.798 179.5,355.5C 179.833,253.665 179.499,151.999 178.5,50.5C 185.288,46.1082 192.622,42.7748 200.5,40.5 Z"/></g>
<g><path style="opacity:0.99" fill="#3979ff" d="M 308.5,39.5 C 315.579,41.7418 322.246,44.7418 328.5,48.5C 328.167,152.001 328.501,255.335 329.5,358.5C 322.961,366.915 315.961,374.915 308.5,382.5C 308.5,334.167 308.5,285.833 308.5,237.5C 329.624,208.21 329.624,178.876 308.5,149.5C 308.5,112.833 308.5,76.1667 308.5,39.5 Z"/></g>
<g><path style="opacity:0.997" fill="#3d75ff" d="M 328.5,48.5 C 332.151,49.6589 335.485,51.3256 338.5,53.5C 338.5,151.5 338.5,249.5 338.5,347.5C 335.848,351.482 332.848,355.149 329.5,358.5C 328.501,255.335 328.167,152.001 328.5,48.5 Z"/></g>
<g><path style="opacity:0.997" fill="#15a5ff" d="M 178.5,50.5 C 179.499,151.999 179.833,253.665 179.5,355.5C 171.44,347.105 164.106,338.105 157.5,328.5C 158.169,239.931 158.836,151.264 159.5,62.5C 165.294,57.7173 171.628,53.7173 178.5,50.5 Z"/></g>
<g><path style="opacity:0.996" fill="#3f72ff" d="M 338.5,53.5 C 342.336,55.5836 346.003,57.917 349.5,60.5C 348.465,151.183 348.465,242.183 349.5,333.5C 346.565,338.765 342.899,343.432 338.5,347.5C 338.5,249.5 338.5,151.5 338.5,53.5 Z"/></g>
<g><path style="opacity:0.995" fill="#436dff" d="M 349.5,60.5 C 356.779,65.4459 363.446,71.1126 369.5,77.5C 369.5,153.833 369.5,230.167 369.5,306.5C 363.597,316.069 356.931,325.069 349.5,333.5C 348.465,242.183 348.465,151.183 349.5,60.5 Z"/></g>
<g><path style="opacity:0.995" fill="#10abff" d="M 159.5,62.5 C 158.836,151.264 158.169,239.931 157.5,328.5C 150.114,320.073 143.447,311.073 137.5,301.5C 138.499,228.002 138.833,154.335 138.5,80.5C 140.962,77.5361 143.629,74.7028 146.5,72C 150.538,68.3258 154.871,65.1591 159.5,62.5 Z"/></g>
<g><path style="opacity:0.995" fill="#4867ff" d="M 369.5,77.5 C 376.959,84.2872 383.292,91.9538 388.5,100.5C 388.168,159.336 388.501,218.002 389.5,276.5C 383.316,286.881 376.65,296.881 369.5,306.5C 369.5,230.167 369.5,153.833 369.5,77.5 Z"/></g>
<g><path style="opacity:0.996" fill="#0dafff" d="M 138.5,80.5 C 138.833,154.335 138.499,228.002 137.5,301.5C 134.917,298.003 132.584,294.336 130.5,290.5C 130.5,223.5 130.5,156.5 130.5,89.5C 132.472,85.8949 135.139,82.8949 138.5,80.5 Z"/></g>
<g><path style="opacity:0.993" fill="#0ab3ff" d="M 130.5,89.5 C 130.5,156.5 130.5,223.5 130.5,290.5C 124.08,281.334 118.413,271.668 113.5,261.5C 114.833,212.167 114.833,162.833 113.5,113.5C 118.422,104.921 124.089,96.9213 130.5,89.5 Z"/></g>
<g><path style="opacity:0.995" fill="#4b64ff" d="M 388.5,100.5 C 391.241,102.975 393.241,105.975 394.5,109.5C 393.501,162.331 393.168,215.331 393.5,268.5C 392.601,271.395 391.267,274.062 389.5,276.5C 388.501,218.002 388.168,159.336 388.5,100.5 Z"/></g>
<g><path style="opacity:0.984" fill="#4e60ff" d="M 394.5,109.5 C 426.591,162.754 426.257,215.754 393.5,268.5C 393.168,215.331 393.501,162.331 394.5,109.5 Z"/></g>
<g><path style="opacity:0.967" fill="#06b8ff" d="M 113.5,113.5 C 114.833,162.833 114.833,212.167 113.5,261.5C 85.8516,212.348 85.8516,163.014 113.5,113.5 Z"/></g>
<g><path style="opacity:0.994" fill="#1e9bff" d="M 200.5,235.5 C 203.5,239.167 206.833,242.5 210.5,245.5C 209.501,293.664 209.168,341.997 209.5,390.5C 206.195,386.859 202.862,383.192 199.5,379.5C 199.168,331.33 199.501,283.33 200.5,235.5 Z"/></g>
<g><path style="opacity:0.993" fill="#347fff" d="M 308.5,237.5 C 308.5,285.833 308.5,334.167 308.5,382.5C 301.173,391.159 293.507,399.493 285.5,407.5C 284.501,357.336 284.168,307.003 284.5,256.5C 293.675,251.659 301.675,245.326 308.5,237.5 Z"/></g>
<g><path style="opacity:0.995" fill="#2197ff" d="M 210.5,245.5 C 214.558,248.89 218.891,251.89 223.5,254.5C 223.5,304.5 223.5,354.5 223.5,404.5C 218.5,400.167 213.833,395.5 209.5,390.5C 209.168,341.997 209.501,293.664 210.5,245.5 Z"/></g>
<g><path style="opacity:0.995" fill="#2592ff" d="M 223.5,254.5 C 230.723,258.241 238.39,260.574 246.5,261.5C 245.791,262.404 244.791,262.737 243.5,262.5C 243.508,317.139 243.508,371.472 243.5,425.5C 236.131,419.132 229.464,412.132 223.5,404.5C 223.5,354.5 223.5,304.5 223.5,254.5 Z"/></g>
<g><path style="opacity:0.996" fill="#2f86ff" d="M 284.5,256.5 C 284.168,307.003 284.501,357.336 285.5,407.5C 278.833,414.833 271.833,421.833 264.5,428.5C 264.171,372.762 264.504,317.095 265.5,261.5C 271.996,260.446 278.329,258.779 284.5,256.5 Z"/></g>
<g><path style="opacity:0.996" fill="#2a8cff" d="M 246.5,261.5 C 252.79,262.75 259.123,262.75 265.5,261.5C 264.504,317.095 264.171,372.762 264.5,428.5C 261.366,433.119 257.032,434.619 251.5,433C 248.334,431 245.668,428.5 243.5,425.5C 243.508,371.472 243.508,317.139 243.5,262.5C 244.791,262.737 245.791,262.404 246.5,261.5 Z"/></g>
<g><path style="opacity:0.961" fill="#16a5ff" d="M 158.5,395.5 C 158.5,389.833 158.5,384.167 158.5,378.5C 164.217,377.779 169.884,376.779 175.5,375.5C 180.139,380.474 184.805,385.474 189.5,390.5C 179.217,392.492 168.884,394.158 158.5,395.5 Z"/></g>
<g><path style="opacity:0.963" fill="#426fff" d="M 369.5,382.5 C 369.5,388.167 369.5,393.833 369.5,399.5C 353.588,396.07 337.588,393.07 321.5,390.5C 326.195,385.474 330.861,380.474 335.5,375.5C 346.948,377.407 358.281,379.74 369.5,382.5 Z"/></g>
<g><path style="opacity:0.965" fill="#10acff" d="M 158.5,378.5 C 158.5,384.167 158.5,389.833 158.5,395.5C 149.337,398.071 140.003,400.405 130.5,402.5C 130.5,396.833 130.5,391.167 130.5,385.5C 139.658,382.544 148.991,380.21 158.5,378.5 Z"/></g>
<g><path style="opacity:0.957" fill="#4867ff" d="M 369.5,382.5 C 377.751,384.029 385.751,386.362 393.5,389.5C 394.117,395.598 393.45,401.265 391.5,406.5C 384.151,404.161 376.818,401.828 369.5,399.5C 369.5,393.833 369.5,388.167 369.5,382.5 Z"/></g>
<g><path style="opacity:0.949" fill="#07b7ff" d="M 130.5,385.5 C 130.5,391.167 130.5,396.833 130.5,402.5C 118.672,406.165 107.839,411.832 98,419.5C 96.4412,421.217 95.6079,423.217 95.5,425.5C 94.8333,417.5 94.1667,409.5 93.5,401.5C 104.745,393.855 117.079,388.522 130.5,385.5 Z"/></g>
<g><path style="opacity:0.951" fill="#04bcff" d="M 93.5,401.5 C 94.1667,409.5 94.8333,417.5 95.5,425.5C 96.8184,429.332 99.1517,432.499 102.5,435C 106.367,437.433 110.367,439.6 114.5,441.5C 114.789,447.591 114.455,453.591 113.5,459.5C 101.42,455.713 91.253,449.046 83,439.5C 74.7759,423.664 78.2759,410.998 93.5,401.5 Z"/></g>
<g><path style="opacity:0.955" fill="#505dff" d="M 393.5,389.5 C 407.788,393.55 419.621,401.216 429,412.5C 435.452,426.823 432.285,438.656 419.5,448C 411.399,453.538 402.732,458.038 393.5,461.5C 393.5,455.167 393.5,448.833 393.5,442.5C 401.545,440.062 408.378,435.728 414,429.5C 416.506,424.38 415.339,420.214 410.5,417C 404.394,412.95 398.061,409.45 391.5,406.5C 393.45,401.265 394.117,395.598 393.5,389.5 Z"/></g>
<g><path style="opacity:0.956" fill="#0bb2ff" d="M 114.5,441.5 C 122.285,444.762 130.285,447.428 138.5,449.5C 138.5,455.5 138.5,461.5 138.5,467.5C 129.893,465.631 121.56,462.964 113.5,459.5C 114.455,453.591 114.789,447.591 114.5,441.5 Z"/></g>
<g><path style="opacity:0.962" fill="#4866ff" d="M 393.5,442.5 C 393.5,448.833 393.5,455.167 393.5,461.5C 386.332,464.112 378.998,466.112 371.5,467.5C 369.55,462.265 368.883,456.598 369.5,450.5C 377.715,448.428 385.715,445.762 393.5,442.5 Z"/></g>
<g><path style="opacity:0.961" fill="#14a7ff" d="M 138.5,449.5 C 152.122,453.156 165.789,456.156 179.5,458.5C 179.5,464.167 179.5,469.833 179.5,475.5C 165.666,473.584 151.999,470.917 138.5,467.5C 138.5,461.5 138.5,455.5 138.5,449.5 Z"/></g>
<g><path style="opacity:0.957" fill="#3f71ff" d="M 369.5,450.5 C 368.883,456.598 369.55,462.265 371.5,467.5C 357.509,471.334 343.175,474.001 328.5,475.5C 328.5,469.833 328.5,464.167 328.5,458.5C 342.323,456.602 355.99,453.935 369.5,450.5 Z"/></g>
<g><path style="opacity:0.967" fill="#1a9fff" d="M 179.5,458.5 C 185.872,458.875 192.205,459.541 198.5,460.5C 199.452,466.075 199.786,471.741 199.5,477.5C 192.85,476.702 186.183,476.035 179.5,475.5C 179.5,469.833 179.5,464.167 179.5,458.5 Z"/></g>
<g><path style="opacity:0.962" fill="#3979ff" d="M 328.5,458.5 C 328.5,464.167 328.5,469.833 328.5,475.5C 321.878,476.532 315.212,477.199 308.5,477.5C 308.5,471.833 308.5,466.167 308.5,460.5C 315.192,460.053 321.859,459.386 328.5,458.5 Z"/></g>
<g><path style="opacity:0.981" fill="#2494ff" d="M 198.5,460.5 C 213.643,461.635 228.643,462.635 243.5,463.5C 243.5,468.833 243.5,474.167 243.5,479.5C 228.795,479.556 214.128,478.89 199.5,477.5C 199.786,471.741 199.452,466.075 198.5,460.5 Z"/></g>
<g><path style="opacity:0.951" fill="#3184ff" d="M 308.5,460.5 C 308.5,466.167 308.5,471.833 308.5,477.5C 293.89,479.036 279.223,479.703 264.5,479.5C 264.5,474.167 264.5,468.833 264.5,463.5C 279.187,462.819 293.854,461.819 308.5,460.5 Z"/></g>
<g><path style="opacity:0.991" fill="#2a8cff" d="M 243.5,463.5 C 250.5,463.5 257.5,463.5 264.5,463.5C 264.5,468.833 264.5,474.167 264.5,479.5C 257.5,479.5 250.5,479.5 243.5,479.5C 243.5,474.167 243.5,468.833 243.5,463.5 Z"/></g>
</svg>
