<?xml version="1.0" encoding="UTF-8"?>
<!DOCTYPE svg PUBLIC "-//W3C//DTD SVG 1.1//EN" "http://www.w3.org/Graphics/SVG/1.1/DTD/svg11.dtd">
<svg xmlns="http://www.w3.org/2000/svg" version="1.1" width="512px" height="512px" style="shape-rendering:geometricPrecision; text-rendering:geometricPrecision; image-rendering:optimizeQuality; fill-rule:evenodd; clip-rule:evenodd" xmlns:xlink="http://www.w3.org/1999/xlink">
<g><path style="opacity:0.973" fill="#e9f5ff" d="M 280.5,-0.5 C 289.5,-0.5 298.5,-0.5 307.5,-0.5C 395.351,11.0298 457.685,57.0298 494.5,137.5C 483.116,136.856 472.116,137.523 461.5,139.5C 422.751,68.0923 362.418,31.2589 280.5,29C 272.085,24.6524 269.252,17.8191 272,8.5C 273.688,4.31481 276.521,1.31481 280.5,-0.5 Z"/></g>
<g><path style="opacity:0.975" fill="#eaf6ff" d="M 416.5,122.5 C 403.167,123.167 389.833,123.833 376.5,124.5C 348.954,101.146 316.954,89.3122 280.5,89C 272.085,84.6524 269.252,77.8191 272,68.5C 273.5,64.3333 276.333,61.5 280.5,60C 336.373,58.4439 381.707,79.2773 416.5,122.5 Z"/></g>
<g><path style="opacity:0.964" fill="#02bdff" d="M 124.5,100.5 C 99.5,100.5 74.5,100.5 49.5,100.5C 66.7851,80.1831 87.4518,76.0164 111.5,88C 116.336,91.6695 120.669,95.8362 124.5,100.5 Z"/></g>
<g><path style="opacity:0.99" fill="#06b7ff" d="M 49.5,100.5 C 74.5,100.5 99.5,100.5 124.5,100.5C 130.093,108.692 135.427,117.025 140.5,125.5C 101.833,125.5 63.1667,125.5 24.5,125.5C 32.5,116.833 40.8333,108.5 49.5,100.5 Z"/></g>
<g><path style="opacity:0.993" fill="#0bb2ff" d="M 24.5,125.5 C 63.1667,125.5 101.833,125.5 140.5,125.5C 147.315,134.45 153.649,143.783 159.5,153.5C 107.428,153.829 55.4283,153.495 3.5,152.5C 7.85598,141.473 14.856,132.473 24.5,125.5 Z"/></g>
<g><path style="opacity:0.975" fill="#e1f2ff" d="M 416.5,122.5 C 423.414,130.649 429.08,139.649 433.5,149.5C 421.784,148.856 410.451,149.522 399.5,151.5C 392.988,141.643 385.321,132.643 376.5,124.5C 389.833,123.833 403.167,123.167 416.5,122.5 Z"/></g>
<g><path style="opacity:0.988" fill="#dff1ff" d="M 360.5,149.5 C 337.327,149.169 314.327,149.502 291.5,150.5C 275.967,151.077 269.467,143.744 272,128.5C 275.918,120.71 282.252,117.71 291,119.5C 318.26,120.389 341.427,130.389 360.5,149.5 Z"/></g>
<g><path style="opacity:0.978" fill="#d9efff" d="M 494.5,137.5 C 498.163,145.155 500.829,153.155 502.5,161.5C 491.833,161.5 481.167,161.5 470.5,161.5C 467.891,154.006 464.891,146.672 461.5,139.5C 472.116,137.523 483.116,136.856 494.5,137.5 Z"/></g>
<g><path style="opacity:0.996" fill="#10abff" d="M 3.5,152.5 C 55.4283,153.495 107.428,153.829 159.5,153.5C 165.661,161.817 171.328,170.483 176.5,179.5C 117.571,178.504 58.5714,178.171 -0.5,178.5C -0.5,174.5 -0.5,170.5 -0.5,166.5C 0.810971,161.937 2.1443,157.271 3.5,152.5 Z"/></g>
<g><path style="opacity:0.98" fill="#d4ecff" d="M 291.5,150.5 C 314.327,149.502 337.327,149.169 360.5,149.5C 367.957,156.418 373.957,164.418 378.5,173.5C 365.989,173.171 353.655,173.505 341.5,174.5C 328.052,160.112 311.385,152.112 291.5,150.5 Z"/></g>
<g><path style="opacity:0.977" fill="#d3ecff" d="M 433.5,149.5 C 437.982,156.594 441.315,164.261 443.5,172.5C 432.915,173.476 422.248,173.809 411.5,173.5C 407.516,166.202 403.516,158.868 399.5,151.5C 410.451,149.522 421.784,148.856 433.5,149.5 Z"/></g>
<g><path style="opacity:0.977" fill="#cde9ff" d="M 470.5,161.5 C 481.167,161.5 491.833,161.5 502.5,161.5C 505.372,169.169 507.372,177.169 508.5,185.5C 498.249,186.475 487.915,186.808 477.5,186.5C 475.377,178.129 473.044,169.796 470.5,161.5 Z"/></g>
<g><path style="opacity:0.996" fill="#15a5ff" d="M -0.5,178.5 C 58.5714,178.171 117.571,178.504 176.5,179.5C 181.297,186.671 183.63,194.671 183.5,203.5C 122.833,203.5 62.1667,203.5 1.5,203.5C 1.24742,199.96 0.580751,196.627 -0.5,193.5C -0.5,188.5 -0.5,183.5 -0.5,178.5 Z"/></g>
<g><path style="opacity:0.976" fill="#c7e7ff" d="M 378.5,173.5 C 383.382,181.131 386.715,189.465 388.5,198.5C 377.833,198.5 367.167,198.5 356.5,198.5C 353.029,189.56 348.029,181.56 341.5,174.5C 353.655,173.505 365.989,173.171 378.5,173.5 Z"/></g>
<g><path style="opacity:0.977" fill="#c7e7ff" d="M 443.5,172.5 C 446.643,180.88 448.643,189.547 449.5,198.5C 439.167,198.5 428.833,198.5 418.5,198.5C 416.369,190.108 414.036,181.775 411.5,173.5C 422.248,173.809 432.915,173.476 443.5,172.5 Z"/></g>
<g><path style="opacity:0.983" fill="#bde3ff" d="M 280.5,179.5 C 306.517,178.03 323.351,189.697 331,214.5C 331.667,219.833 331.667,225.167 331,230.5C 325.848,239.475 318.348,241.975 308.5,238C 302.512,233.437 299.679,227.271 300,219.5C 295.829,211.993 289.329,208.493 280.5,209C 272.085,204.652 269.252,197.819 272,188.5C 273.688,184.315 276.521,181.315 280.5,179.5 Z"/></g>
<g><path style="opacity:0.977" fill="#c0e4ff" d="M 508.5,185.5 C 509.507,191.622 510.507,197.622 511.5,203.5C 511.5,205.833 511.5,208.167 511.5,210.5C 500.909,209.895 490.575,210.562 480.5,212.5C 479.828,203.793 478.828,195.126 477.5,186.5C 487.915,186.808 498.249,186.475 508.5,185.5 Z"/></g>
<g><path style="opacity:0.996" fill="#1a9fff" d="M 1.5,203.5 C 62.1667,203.5 122.833,203.5 183.5,203.5C 183.258,213.23 180.258,221.896 174.5,229.5C 119.669,228.501 64.6692,228.168 9.5,228.5C 6.07815,220.503 3.41148,212.17 1.5,203.5 Z"/></g>
<g><path style="opacity:0.972" fill="#b8e1ff" d="M 418.5,198.5 C 428.833,198.5 439.167,198.5 449.5,198.5C 451.436,208.947 451.936,219.614 451,230.5C 445.848,239.475 438.348,241.975 428.5,238C 425.527,236.235 423.36,233.735 422,230.5C 420.999,219.804 419.832,209.137 418.5,198.5 Z"/></g>
<g><path style="opacity:0.977" fill="#b8e1ff" d="M 356.5,198.5 C 367.167,198.5 377.833,198.5 388.5,198.5C 391.309,208.955 392.142,219.622 391,230.5C 385.848,239.475 378.348,241.975 368.5,238C 365.527,236.235 363.36,233.735 362,230.5C 361.372,219.599 359.538,208.932 356.5,198.5 Z"/></g>
<g><path style="opacity:0.977" fill="#b3dfff" d="M 511.5,210.5 C 511.5,217.167 511.5,223.833 511.5,230.5C 506.158,239.454 498.492,241.954 488.5,238C 485.527,236.235 483.36,233.735 482,230.5C 480.838,224.555 480.338,218.555 480.5,212.5C 490.575,210.562 500.909,209.895 511.5,210.5 Z"/></g>
<g><path style="opacity:0.996" fill="#1e9bff" d="M 9.5,228.5 C 64.6692,228.168 119.669,228.501 174.5,229.5C 171.899,233.771 168.566,237.437 164.5,240.5C 114.5,240.5 64.5,240.5 14.5,240.5C 12.3213,236.797 10.6546,232.797 9.5,228.5 Z"/></g>
<g><path style="opacity:0.993" fill="#2197ff" d="M 14.5,240.5 C 64.5,240.5 114.5,240.5 164.5,240.5C 159.167,246.5 153.5,252.167 147.5,257.5C 105.528,257.49 63.8613,257.49 22.5,257.5C 19.0506,252.265 16.384,246.598 14.5,240.5 Z"/></g>
<g><path style="opacity:0.994" fill="#2591ff" d="M 147.5,257.5 C 145.667,259.496 145.167,261.829 146,264.5C 148.313,271.122 151.147,277.455 154.5,283.5C 115.239,282.506 75.9059,282.173 36.5,282.5C 31.5678,274.301 26.9012,265.968 22.5,257.5C 63.8613,257.49 105.528,257.49 147.5,257.5 Z"/></g>
<g><path style="opacity:0.995" fill="#2a8cff" d="M 36.5,282.5 C 75.9059,282.173 115.239,282.506 154.5,283.5C 160.408,290.98 166.075,298.647 171.5,306.5C 131.833,306.5 92.1667,306.5 52.5,306.5C 46.7744,298.772 41.4411,290.772 36.5,282.5 Z"/></g>
<g><path style="opacity:0.993" fill="#2f86ff" d="M 52.5,306.5 C 92.1667,306.5 131.833,306.5 171.5,306.5C 179.139,314.474 186.806,322.474 194.5,330.5C 153.67,331.499 112.67,331.832 71.5,331.5C 64.7829,323.451 58.4496,315.117 52.5,306.5 Z"/></g>
<g><path style="opacity:0.988" fill="#347fff" d="M 370.5,360.5 C 332.5,360.5 294.5,360.5 256.5,360.5C 264.331,350.502 273.331,341.669 283.5,334C 298.988,325.756 314.655,325.423 330.5,333C 344.073,341.942 357.407,351.109 370.5,360.5 Z"/></g>
<g><path style="opacity:0.993" fill="#347fff" d="M 194.5,330.5 C 206.678,341.354 219.678,351.021 233.5,359.5C 188.003,360.499 142.336,360.832 96.5,360.5C 87.822,351.153 79.4886,341.487 71.5,331.5C 112.67,331.832 153.67,331.499 194.5,330.5 Z"/></g>
<g><path style="opacity:0.994" fill="#377bff" d="M 233.5,359.5 C 238.72,362.185 244.22,364.185 250,365.5C 252.317,364.015 254.484,362.348 256.5,360.5C 294.5,360.5 332.5,360.5 370.5,360.5C 374.439,362.446 378.106,364.779 381.5,367.5C 288.665,367.167 195.999,367.501 103.5,368.5C 101.196,365.859 98.8623,363.192 96.5,360.5C 142.336,360.832 188.003,360.499 233.5,359.5 Z"/></g>
<g><path style="opacity:0.996" fill="#3a78ff" d="M 381.5,367.5 C 390.167,373.167 398.833,378.833 407.5,384.5C 312.001,385.499 216.335,385.833 120.5,385.5C 114.5,380.167 108.833,374.5 103.5,368.5C 195.999,367.501 288.665,367.167 381.5,367.5 Z"/></g>
<g><path style="opacity:0.996" fill="#3d74ff" d="M 407.5,384.5 C 412.486,387.821 416.82,391.821 420.5,396.5C 324.833,397.167 229.167,397.833 133.5,398.5C 128.833,394.5 124.5,390.167 120.5,385.5C 216.335,385.833 312.001,385.499 407.5,384.5 Z"/></g>
<g><path style="opacity:0.997" fill="#3f71ff" d="M 420.5,396.5 C 423.54,399.914 425.54,403.914 426.5,408.5C 333.506,410.498 240.173,411.164 146.5,410.5C 141.54,407.208 137.207,403.208 133.5,398.5C 229.167,397.833 324.833,397.167 420.5,396.5 Z"/></g>
<g><path style="opacity:0.996" fill="#436dff" d="M 426.5,408.5 C 428.629,413.146 429.629,418.146 429.5,423.5C 429.589,427.761 428.922,431.761 427.5,435.5C 343.665,435.167 259.998,435.501 176.5,436.5C 166.179,428.178 156.179,419.511 146.5,410.5C 240.173,411.164 333.506,410.498 426.5,408.5 Z"/></g>
<g><path style="opacity:0.996" fill="#4867ff" d="M 427.5,435.5 C 425.299,444.694 420.632,452.361 413.5,458.5C 344.665,458.167 275.998,458.501 207.5,459.5C 196.861,452.187 186.528,444.521 176.5,436.5C 259.998,435.501 343.665,435.167 427.5,435.5 Z"/></g>
<g><path style="opacity:0.994" fill="#4d61ff" d="M 413.5,458.5 C 403.833,468.833 393.833,478.833 383.5,488.5C 341.499,488.333 299.499,488.5 257.5,489C 258.056,489.383 258.389,489.883 258.5,490.5C 240.326,481.922 223.326,471.588 207.5,459.5C 275.998,458.501 344.665,458.167 413.5,458.5 Z"/></g>
<g><path style="opacity:0.974" fill="#525bff" d="M 383.5,488.5 C 373.036,500.562 360.036,508.229 344.5,511.5C 335.5,511.5 326.5,511.5 317.5,511.5C 296.649,507.883 276.983,500.883 258.5,490.5C 258.389,489.883 258.056,489.383 257.5,489C 299.499,488.5 341.499,488.333 383.5,488.5 Z"/></g>
</svg>
